# xmcd
#
# Track frame offsets:
#	150
#	28757
#	59295
#	90735
#	121273
#	150959
#	175112
#	214551
#
# Disc length: 3288 seconds
#
# Revision: 0
# Processed by: cddbd v1.5.2PL0 Copyright (c) Steve Scherf et al.
# Submitted via: EasyCDDAExtractor 12.0.4.1
#
DISCID=5b0cd608
DTITLE=Invertsky - Autumn #22
DYEAR=2005
DGENRE=deep-techno
TTITLE0=August, 17
TTITLE1=Inverted Skies
TTITLE2=September's Gold
TTITLE3=Good Evenings
TTITLE4=Doubts and Senses
TTITLE5=Leaves
TTITLE6=Sleeples Nights
TTITLE7=Distant Friend
EXTD=
EXTT0=
EXTT1=
EXTT2=
EXTT3=
EXTT4=
EXTT5=
EXTT6=
EXTT7=
PLAYORDER=
